<?xml version="1.0" standalone="no"?>
<!DOCTYPE svg PUBLIC "-//W3C//DTD SVG 20010904//EN"
 "http://www.w3.org/TR/2001/REC-SVG-20010904/DTD/svg10.dtd">
<svg version="1.0" xmlns="http://www.w3.org/2000/svg"
 width="288.000000pt" height="478.000000pt" viewBox="0 0 288.000000 478.000000"
 preserveAspectRatio="xMidYMid meet">
<metadata>
Created by potrace 1.13, written by Peter Selinger 2001-2015
</metadata>
<g transform="translate(0.000000,478.000000) scale(0.100000,-0.100000)"
fill="#000000" stroke="none">
<path d="M2010 4606 l-55 -22 -7 -105 c-8 -132 -19 -206 -73 -495 -25 -127
-47 -262 -51 -300 -4 -46 -13 -76 -25 -89 -11 -12 -25 -56 -34 -105 -26 -139
-93 -390 -166 -624 -38 -122 -98 -315 -133 -431 -36 -115 -83 -257 -107 -315
-23 -58 -93 -261 -155 -451 -113 -344 -182 -527 -248 -657 -30 -60 -35 -64
-40 -42 -26 112 -191 964 -211 1092 -39 249 -37 241 -65 255 -42 21 -118 16
-164 -11 -66 -38 -70 -54 -46 -171 28 -136 46 -261 65 -444 8 -85 20 -158 26
-162 8 -5 8 -12 0 -27 -17 -32 -13 -89 9 -132 16 -31 20 -59 20 -132 0 -78 4
-101 25 -143 18 -37 24 -67 25 -113 0 -57 2 -63 25 -74 25 -11 25 -31 0 -21
-22 8 -19 -33 4 -56 15 -15 19 -40 24 -147 5 -106 14 -160 49 -301 30 -118 49
-177 62 -186 26 -19 131 -13 196 12 30 11 114 53 186 93 124 69 135 79 235
188 264 288 493 563 634 760 37 52 89 118 114 145 26 28 101 118 168 200 66
83 150 186 187 229 97 117 105 175 28 212 -43 20 -114 14 -144 -12 -11 -11
-47 -58 -80 -107 -62 -89 -269 -351 -554 -697 -88 -107 -195 -240 -239 -295
-89 -113 -298 -334 -389 -412 -76 -65 -162 -111 -178 -95 -7 7 -14 39 -16 71
l-4 60 36 22 c23 14 46 39 61 70 14 26 38 64 55 82 16 19 30 40 30 47 0 7 23
59 51 114 28 56 69 147 90 204 22 57 46 113 54 125 42 65 326 970 529 1682
257 905 320 1208 349 1667 3 42 0 59 -11 63 -29 11 -89 3 -142 -19z"/>
</g>
</svg>
