<?xml version="1.0" standalone="no"?>
<!DOCTYPE svg PUBLIC "-//W3C//DTD SVG 20010904//EN"
 "http://www.w3.org/TR/2001/REC-SVG-20010904/DTD/svg10.dtd">
<svg version="1.0" xmlns="http://www.w3.org/2000/svg"
 width="512.000000pt" height="512.000000pt" viewBox="0 0 512.000000 512.000000"
 preserveAspectRatio="xMidYMid meet">
<metadata>
Created by potrace 1.13, written by Peter Selinger 2001-2015
</metadata>
<g transform="translate(0.000000,512.000000) scale(0.100000,-0.100000)"
fill="#000000" stroke="none">
<path d="M2212 4780 c-58 -12 -137 -57 -174 -99 -44 -49 -72 -118 -104 -255
l-29 -118 -52 -24 -53 -23 -156 76 c-153 75 -158 77 -233 77 -134 0 -158 -17
-432 -292 -255 -257 -277 -286 -286 -394 -8 -84 10 -139 92 -280 l74 -126 -21
-49 -20 -49 -132 -44 c-170 -55 -213 -78 -269 -140 -79 -88 -82 -104 -82 -495
l0 -340 26 -55 c56 -121 130 -169 333 -217 l118 -28 24 -53 23 -53 -69 -139
c-79 -161 -96 -223 -81 -304 18 -98 43 -130 285 -372 252 -253 291 -282 397
-291 86 -8 146 12 283 93 l124 73 49 -21 49 -20 44 -132 c55 -170 78 -213 140
-269 88 -79 104 -82 495 -82 l340 0 67 33 c114 56 156 122 204 326 l29 118 53
24 53 23 137 -68 c158 -79 225 -97 306 -82 98 18 130 43 372 285 253 252 282
291 291 397 8 85 -10 140 -92 281 l-74 126 21 49 20 49 132 44 c170 55 213 78
269 140 79 88 82 104 82 495 l0 340 -26 55 c-56 120 -119 162 -310 210 -69 17
-130 35 -136 38 -5 4 -20 29 -31 55 l-21 48 69 139 c79 161 96 224 81 304 -18
98 -43 130 -285 372 -252 253 -291 282 -397 291 -86 8 -146 -12 -283 -93
l-124 -73 -49 21 -49 20 -44 132 c-55 170 -78 213 -140 269 -87 79 -100 81
-465 83 -176 1 -339 -2 -363 -6z m687 -522 c36 -108 71 -201 76 -206 6 -5 42
-20 80 -32 39 -12 116 -44 172 -71 57 -27 106 -49 110 -49 5 0 87 47 183 105
l175 104 200 -199 200 -200 -97 -193 -96 -193 44 -89 c24 -50 59 -134 76 -188
30 -89 35 -98 63 -105 16 -5 108 -28 203 -53 l172 -44 -2 -279 -3 -279 -197
-66 c-108 -36 -201 -70 -206 -76 -5 -5 -20 -41 -32 -80 -12 -38 -44 -116 -71
-172 -27 -57 -49 -106 -49 -110 0 -5 47 -87 104 -183 l105 -175 -200 -200
-199 -200 -193 97 -193 96 -89 -44 c-50 -24 -134 -59 -188 -76 -89 -30 -98
-35 -105 -63 -5 -16 -28 -108 -53 -203 l-44 -172 -279 2 -279 3 -66 197 c-36
108 -70 201 -76 206 -5 5 -41 20 -80 32 -38 12 -116 44 -172 71 -57 27 -106
49 -110 49 -5 0 -87 -47 -183 -104 l-175 -105 -200 200 -200 199 97 193 96
193 -44 89 c-24 50 -59 134 -76 188 -31 94 -34 98 -68 107 -19 5 -110 28 -203
52 l-167 42 2 280 3 279 197 66 c108 36 201 71 206 76 5 6 20 42 32 80 12 39
44 116 71 172 27 57 49 106 49 110 0 5 -47 87 -105 183 l-104 175 200 200 199
200 193 -97 193 -96 89 44 c50 24 134 59 188 76 94 31 98 34 107 68 5 19 28
110 52 203 l42 167 280 -2 279 -3 66 -197z"/>
<path d="M2405 3819 c-269 -32 -543 -166 -740 -364 -496 -495 -496 -1297 0
-1790 181 -180 397 -296 655 -351 115 -24 352 -25 472 -1 258 51 480 169 663
352 185 186 310 425 356 685 20 108 17 345 -5 450 -55 258 -171 474 -351 655
-274 276 -662 410 -1050 364z m373 -118 c445 -86 789 -411 910 -860 23 -87 26
-113 26 -281 0 -168 -3 -194 -26 -281 -117 -434 -430 -742 -866 -852 -126 -31
-398 -31 -524 0 -436 111 -753 423 -865 852 -35 133 -42 329 -18 471 79 478
443 853 920 950 125 25 315 26 443 1z"/>
<path d="M2425 3523 c-375 -52 -693 -334 -801 -708 -101 -353 29 -765 316
-1000 472 -387 1163 -259 1465 271 232 407 130 935 -237 1228 -179 144 -393
218 -617 215 -53 -1 -109 -4 -126 -6z m270 -328 c183 -38 362 -177 444 -345
55 -112 75 -208 67 -325 -11 -173 -67 -296 -191 -420 -204 -205 -484 -251
-745 -124 -169 83 -307 261 -346 449 -19 88 -14 225 12 310 96 324 429 524
759 455z"/>
</g>
</svg>
